# xmcd
#
# Track frame offsets: 
#        150
#        15924
#        31924
#        46706
#        71398
#        87696
#        112022
#        132744
#        149956
#        174245
#        188350
#
# Disc length: 2755 seconds
#
# Revision: 0
# Processed by: cddbd v1.5.2PL0 Copyright (c) Steve Scherf et al.
# Submitted via: ExactAudioCopy v0.99pb5
#
DISCID=930ac10b
DTITLE=Kelly Dees - Bettin' Woman
DYEAR=2006
DGENRE=Blues
TTITLE0=Jet Plane
TTITLE1=I Wanna Rock 
TTITLE2=Bettin' Woman
TTITLE3=Blues On A Tuesday
TTITLE4=Slow
TTITLE5=There'll Be A Day
TTITLE6=On My Way
TTITLE7=I Will Be Happy
TTITLE8=Blues Sister
TTITLE9=I'm Alright
TTITLE10=Rewarded
EXTD=
EXTT0=
EXTT1=
EXTT2=
EXTT3=
EXTT4=
EXTT5=
EXTT6=
EXTT7=
EXTT8=
EXTT9=
EXTT10=
PLAYORDER=
